<svg width="30" height="29" viewBox="0 0 30 29" fill="none" xmlns="http://www.w3.org/2000/svg">
<path d="M8.11651 28.6302L8.65839 28.4788C9.17961 28.3331 9.48405 27.7925 9.33841 27.2712L3.143 5.10027C3.05557 4.78738 2.84743 4.52204 2.56437 4.36262C2.2813 4.2032 1.9465 4.16276 1.63362 4.2502L1.56363 4.26973C0.91205 4.45179 0.531416 5.12758 0.713462 5.77917L6.90902 27.9501C7.05467 28.4714 7.59527 28.7759 8.11651 28.6302Z" fill="white"/>
<path d="M29.2001 14.6066C27.2354 13.627 25.4179 12.3765 23.8006 10.8919C23.6646 10.7674 23.6115 10.5764 23.6636 10.3996C24.4649 7.36807 25.06 4.28572 25.4448 1.17374C25.4772 0.898801 25.4136 0.726946 25.3027 0.679466C25.2049 0.637554 25.0703 0.692551 24.9323 0.859102C19.1572 7.76584 9.16502 -0.40451 3.21741 5.87296C3.28882 6.00665 3.34499 6.14793 3.38488 6.29416L7.40408 20.6862C13.3618 14.4848 23.3185 22.6044 29.0834 15.7129C29.3777 15.3577 29.4336 14.7081 29.2001 14.6066Z" fill="white"/>
</svg>
