<svg width="22" height="18" viewBox="0 0 22 18" fill="none" xmlns="http://www.w3.org/2000/svg">
<path fill-rule="evenodd" clip-rule="evenodd" d="M18.9676 0.532504C19.2147 0.428495 19.4852 0.392623 19.7509 0.428621C20.0165 0.46462 20.2677 0.571173 20.4783 0.737189C20.6888 0.903206 20.851 1.12262 20.9479 1.37259C21.0449 1.62256 21.0731 1.89394 21.0296 2.1585L18.7616 15.9155C18.5416 17.2425 17.0856 18.0035 15.8686 17.3425C14.8506 16.7895 13.3386 15.9375 11.9786 15.0485C11.2986 14.6035 9.21557 13.1785 9.47157 12.1645C9.69157 11.2975 13.1916 8.0395 15.1916 6.1025C15.9766 5.3415 15.6186 4.9025 14.6916 5.6025C12.3886 7.3405 8.69357 9.9835 7.47157 10.7275C6.39357 11.3835 5.83157 11.4955 5.15957 11.3835C3.93357 11.1795 2.79657 10.8635 1.86857 10.4785C0.614572 9.95851 0.675572 8.2345 1.86757 7.7325L18.9676 0.532504Z" fill="white"/>
</svg>
