<svg width="22" height="18" viewBox="0 0 22 18" fill="none" xmlns="http://www.w3.org/2000/svg">
<path d="M18.2687 2.32785C16.9387 1.70785 15.4987 1.25785 13.9987 0.997849C13.9855 0.997428 13.9724 0.999896 13.9603 1.00508C13.9482 1.01026 13.9374 1.01804 13.9287 1.02785C13.7487 1.35785 13.5387 1.78785 13.3987 2.11785C11.8077 1.87785 10.1897 1.87785 8.59865 2.11785C8.45865 1.77785 8.24865 1.35785 8.05865 1.02785C8.04865 1.00785 8.01865 0.997849 7.98865 0.997849C6.48865 1.25785 5.05865 1.70785 3.71865 2.32785C3.70865 2.32785 3.69865 2.33785 3.68865 2.34785C0.968652 6.41785 0.218652 10.3778 0.588652 14.2978C0.588652 14.3178 0.598652 14.3378 0.618652 14.3478C2.41865 15.6678 4.14865 16.4678 5.85865 16.9978C5.88865 17.0078 5.91865 16.9978 5.92865 16.9778C6.32865 16.4278 6.68865 15.8478 6.99865 15.2378C7.01865 15.1978 6.99865 15.1578 6.95865 15.1478C6.38865 14.9278 5.84865 14.6678 5.31865 14.3678C5.27865 14.3478 5.27865 14.2878 5.30865 14.2578C5.41865 14.1778 5.52865 14.0878 5.63865 14.0078C5.65865 13.9878 5.68865 13.9878 5.70865 13.9978C9.14865 15.5678 12.8587 15.5678 16.2587 13.9978C16.2787 13.9878 16.3087 13.9878 16.3287 14.0078C16.4387 14.0978 16.5487 14.1778 16.6587 14.2678C16.6987 14.2978 16.6987 14.3578 16.6487 14.3778C16.1287 14.6878 15.5787 14.9378 15.0087 15.1578C14.9687 15.1678 14.9587 15.2178 14.9687 15.2478C15.2887 15.8578 15.6487 16.4378 16.0387 16.9878C16.0687 16.9978 16.0987 17.0078 16.1287 16.9978C17.8487 16.4678 19.5787 15.6678 21.3787 14.3478C21.3987 14.3378 21.4087 14.3178 21.4087 14.2978C21.8487 9.76785 20.6786 5.83785 18.3087 2.34785C18.2987 2.33785 18.2887 2.32785 18.2687 2.32785ZM7.51865 11.9078C6.48865 11.9078 5.62865 10.9578 5.62865 9.78785C5.62865 8.61785 6.46865 7.66785 7.51865 7.66785C8.57865 7.66785 9.41865 8.62785 9.40865 9.78785C9.40865 10.9578 8.56865 11.9078 7.51865 11.9078ZM14.4887 11.9078C13.4587 11.9078 12.5987 10.9578 12.5987 9.78785C12.5987 8.61785 13.4387 7.66785 14.4887 7.66785C15.5487 7.66785 16.3887 8.62785 16.3787 9.78785C16.3787 10.9578 15.5487 11.9078 14.4887 11.9078Z" fill="white"/>
</svg>
