<svg width="22" height="18" viewBox="0 0 22 18" fill="none" xmlns="http://www.w3.org/2000/svg">
<path d="M20.4955 0.776709C19.6646 0.776709 18.991 1.48293 18.991 2.35379C18.991 2.88131 19.2384 3.34807 19.618 3.63435L17.2386 7.54878C17.7454 7.83001 18.0909 8.38819 18.0909 9.03103C18.0909 9.95669 17.375 10.7073 16.4917 10.7073C15.6084 10.7073 14.8924 9.95684 14.8924 9.03103C14.8924 8.18911 15.4846 7.49235 16.2561 7.3729L14.6235 3.35887C15.3418 3.18326 15.877 2.50832 15.877 1.702C15.877 0.76204 15.1501 2.464e-05 14.2534 2.464e-05C13.3566 2.464e-05 12.6297 0.762188 12.6297 1.702C12.6297 2.43042 13.0666 3.05174 13.6805 3.29455L11.5897 7.03172C12.2761 7.25445 12.7749 7.92517 12.7749 8.71778C12.7749 9.69218 12.0212 10.4823 11.0914 10.4823C10.1616 10.4823 9.40792 9.69236 9.40792 8.71776C9.40792 7.97169 9.84989 7.3342 10.4742 7.07603L8.40012 3.30091C9.02236 3.06263 9.46653 2.43668 9.46653 1.70198C9.46653 0.762015 8.73962 0 7.84289 0C6.94617 0 6.21925 0.762163 6.21925 1.70198C6.21925 2.49365 6.73512 3.15913 7.43375 3.34923L5.77411 7.38247C6.51943 7.52509 7.0845 8.20881 7.0845 9.03105C7.0845 9.95669 6.36852 10.7073 5.48525 10.7073C4.60199 10.7073 3.88601 9.95684 3.88601 9.03103C3.88601 8.37278 4.24812 7.80348 4.77476 7.52913L2.38811 3.62986C2.76424 3.34319 3.00903 2.87859 3.00903 2.35379C3.00903 1.48279 2.3354 0.776709 1.50451 0.776709C0.673625 0.776709 0 1.48293 0 2.35379C0 3.22466 0.673625 3.93078 1.50451 3.93078C1.53938 3.93078 1.57381 3.92911 1.60809 3.92666L3.73597 16.0068C2.44667 16.0424 2.44345 17.9844 3.7718 17.9844H4.08426L4.08704 18H17.9136L17.9163 17.9844H18.2743C19.5679 17.9844 19.591 16.0059 18.2743 16.0059H18.2648L20.3925 3.92671C20.4266 3.92918 20.4609 3.93078 20.4955 3.93078C21.3264 3.93078 22 3.22478 22 2.35379C22 1.48279 21.3264 0.776709 20.4955 0.776709Z" fill="url(#paint0_linear_1_1030)"/>
<defs>
<linearGradient id="paint0_linear_1_1030" x1="11.0547" y1="2.00374e-06" x2="12.7885" y2="18.9665" gradientUnits="userSpaceOnUse">
<stop stop-color="#FB801D"/>
<stop offset="0.973958" stop-color="#FB451D"/>
</linearGradient>
</defs>
</svg>
