<svg width="240" height="50" viewBox="0 0 240 50" fill="none" xmlns="http://www.w3.org/2000/svg">
<path fill-rule="evenodd" clip-rule="evenodd" d="M232.097 21.5216C235.216 22.6835 237.862 23.6692 238.744 24.3082C240.616 25.6655 239.843 34.9676 239.843 34.9676C239.843 34.9676 227.929 49.6317 227.929 49.4301C227.929 49.2285 224.381 42.5711 218.63 40.8752C212.88 39.1792 209.335 39.9264 209.335 39.9264C209.335 39.9264 210.346 38.0558 211.302 34.3226C209.615 32.5541 208.657 30.7452 208.252 28.6542C207.463 24.5635 212.093 23.1014 212.093 23.1014C212.093 23.1014 208.453 26.5605 212.199 30.3878C213.335 26.2353 215.154 25.7138 215.154 25.7138C215.154 25.7138 213.478 30.5839 216.229 33.1265C217.208 33.597 218.204 33.9918 219.167 34.3733L219.167 34.3733C219.827 34.6346 220.471 34.8896 221.082 35.1584C221.137 35.1458 221.19 35.1278 221.241 35.1047C221.22 35.1366 221.202 35.1698 221.185 35.2041C222.734 35.8948 224.066 36.6823 224.913 37.8918C228.27 37.6983 231.357 36.1045 232.062 32.4627C232.856 28.3209 229.216 24.9935 224.648 25.265C220.081 25.5364 219.48 25.6574 219.48 25.6574C219.48 25.6574 224.564 23.9722 222.022 22.6149C221.364 22.2635 220.549 21.9979 219.673 21.7124C217.166 20.8955 214.163 19.9167 212.925 16.3015C212.4 14.7698 212.159 13.7593 211.977 12.9991C211.581 11.3383 211.469 10.8723 209.313 8.77596C206.171 5.72005 205.768 0.492487 205.834 0.763945C205.901 1.0354 207.373 5.59373 213.661 5.65285C218.806 5.70123 222.472 1.71228 223.672 0.40729L223.672 0.407156C223.938 0.117226 224.083 -0.0401763 224.095 0.00868572C224.117 0.0967034 225.1 0.679924 226.487 1.5032L226.487 1.50325L226.487 1.50335C229.336 3.19402 233.891 5.89693 235.332 7.40255C237.473 9.6414 237.473 11.203 237.473 11.203C237.473 11.203 233.123 12.1517 230.476 15.256C231.045 14.4255 231.998 12.1893 228.977 8.96409C225.104 4.82234 220.616 6.24416 219.279 8.21693C217.942 10.1897 216.2 14.3261 221.62 17.1777C224.488 18.6868 228.591 20.2155 232.097 21.5216ZM112.861 17.0434C116.006 15.0061 115.94 12.2217 115.94 12.2217C115.94 12.2217 117.952 14.9363 118.482 18.2636C119.011 21.591 118.482 25.12 118.482 25.12C118.482 25.12 118.214 22.6069 113.999 21.3169C109.784 20.0268 107.579 20.6395 107.176 24.0341C106.774 27.4287 108.648 30.6028 108.648 30.6028C108.648 30.6028 107.301 31.2371 107.243 34.9032C107.184 38.5692 107.979 48.5862 107.979 48.5862C107.979 48.5862 105.368 43.7323 101.423 42.1008C97.4782 40.4694 96.8084 40.2006 96.8084 40.2006C96.8084 40.2006 102.832 41.824 103.499 36.8733C104.166 31.9225 102.395 31.1162 102.395 31.1162C102.395 31.1162 103.562 31.3608 103.697 27.3534C103.832 23.3461 103.298 19.8144 98.9503 20.2229C94.6029 20.6315 92.2598 24.706 92.2598 24.706C92.2598 24.706 92.5934 17.7126 93.7318 14.9954C94.8703 12.2781 95.8049 11.8051 95.8049 11.8051C95.8049 11.8051 95.8738 15.0652 98.013 16.7612C100.152 18.4571 102.093 18.1185 102.093 18.1185L105.037 10.8617L108.781 18.1185C108.781 18.1185 109.715 19.0807 112.861 17.0434ZM58.4827 17.6213C61.3924 15.3906 61.7949 13.2404 61.7949 13.2404C61.7949 13.2404 63.8997 18.6373 64.4028 22.4054C64.9058 26.1736 64.4028 26.8858 64.4028 26.8858C64.4028 26.8858 63.8124 21.7792 59.2955 20.8627C54.7787 19.9462 50.066 20.2526 49.7641 22.2899C49.4623 24.3271 49.4623 29.3182 49.4623 29.3182C49.4623 29.3182 52.973 27.6948 55.8828 28.5119C58.7925 29.329 59.7959 30.6002 59.7959 30.6002C59.7959 30.6002 52.8936 29.2268 51.1779 32.6886C49.4623 36.1503 49.5682 39.0074 50.7676 40.5313C51.9669 42.0552 58.7925 42.7701 64.4107 37.5748C64.4107 37.5748 63.4099 44.1973 62.1047 46.5383C60.7994 48.8793 60.0978 49.3899 60.0978 49.3899C60.0978 49.3899 61.088 43.7915 54.6781 42.6707C48.2682 41.5499 46.1501 46.2346 46.1501 46.2346C46.1501 46.2346 42.6341 43.8909 40.3254 42.2621C38.0167 40.6334 37.7148 39.5126 37.7148 39.5126C37.7148 39.5126 40.4234 41.9692 43.6349 40.7355C46.8465 39.5019 46.6532 33.0971 45.4406 31.9763C44.228 30.8555 43.4337 30.6513 43.4337 30.6513C43.4337 30.6513 46.6479 31.0598 46.0442 26.8885C45.7216 24.6588 44.2528 22.9498 42.8329 21.2976C41.5964 19.8588 40.397 18.4631 40.0236 16.8043C39.2213 13.2404 39.3219 11.8159 39.3219 11.8159C39.3219 11.8159 41.5274 18.3362 46.3434 18.64C47.1875 18.6932 48.0191 18.765 48.8325 18.8352C52.6603 19.1657 56.0829 19.4612 58.4827 17.6213ZM76.0191 31.7908C75.839 31.8446 75.7384 31.8795 75.7384 31.8795C75.8371 31.8704 75.9327 31.8402 76.0191 31.7908ZM77.462 25.6521C72.4316 21.3895 73.3662 17.7234 77.462 17.417C81.5579 17.1106 83.165 23.5289 83.165 23.5289C83.165 23.5289 83.9593 21.5937 85.5717 20.8788C87.1841 20.1639 87.7798 20.1665 87.7798 20.1665C87.7798 20.1665 83.165 17.5191 80.9569 15.4819C78.7488 13.4446 76.9431 13.6489 76.9431 13.6489C76.9431 13.6489 76.9431 17.1106 72.9293 17.4116C68.9155 17.7127 65.1056 15.4765 65.1056 15.4765C65.1056 15.4765 66.1064 18.433 67.7135 19.6532L69.318 20.8734C69.318 20.8734 67.7135 24.6362 71.5261 26.6788C72.153 27.0147 72.7229 27.3118 73.2362 27.5794L73.2371 27.5798L73.2372 27.5798C75.8454 28.9393 76.994 29.5381 76.7419 30.6002C76.5645 31.3527 76.2494 31.6591 76.0191 31.7855C76.9272 31.5167 79.8952 30.7668 82.1615 31.8742C84.87 33.1992 85.1692 36.7631 83.0644 38.8004C80.9595 40.8376 77.4223 42.4664 74.7747 39.9211C72.1271 37.3759 71.3328 32.3956 71.3328 32.3956C70.839 34.0785 70.2011 35.7144 69.4265 37.2845C68.0206 40.241 67.3084 42.1734 67.3084 42.1734C67.3084 42.1734 70.0169 40.9532 75.2354 42.8884C80.4538 44.8235 81.2561 48.5917 81.2561 48.5917L89.6834 38.3031C89.6834 38.3031 89.9826 32.8041 89.6834 31.3769C89.5613 30.7944 88.3415 30.4443 86.5982 29.944C84.07 29.2183 80.4409 28.1767 77.462 25.6521ZM170.25 27.4989C173.461 22.4084 176.572 26.6926 176.572 26.6926C176.572 26.6926 177.073 25.7761 175.468 22.9298C173.864 20.0835 166.337 13.0498 166.337 13.0498C166.337 13.0498 166.337 16.4121 161.322 17.2265C157.325 17.8757 154.149 15.2254 152.825 14.1206C152.488 13.8394 152.271 13.6583 152.191 13.6572C152.029 13.655 152.32 14.0311 152.934 14.826C153.819 15.9718 155.376 17.9876 157.221 20.9946C159.741 25.1035 159.436 28.217 159.065 31.9948C158.976 32.8998 158.884 33.843 158.825 34.847C158.524 40.0424 152.707 40.76 152.707 40.76C152.707 40.76 153.408 40.8621 156.819 41.9802C160.229 43.0983 163.742 48.2963 163.742 48.2963C163.742 48.2963 162.037 37.7041 161.849 32.5088C161.755 29.2741 162.157 26.0443 163.04 22.9352C163.04 22.9352 160.732 19.8792 162.537 18.8606C164.343 17.842 170.163 18.7585 170.163 23.0373C170.163 26.8939 165.68 25.9491 164.571 25.7152C164.449 25.6896 164.368 25.6726 164.338 25.6712C164.24 25.6669 164.45 25.9465 164.866 26.5013C165.754 27.6858 167.583 30.1249 169.368 33.7343C171.989 39.0345 170.271 43.0015 170.271 43.0015C170.271 43.0015 171.476 43.1037 174.436 44.5308C176.218 45.4002 177.677 46.8288 178.598 48.6054C178.598 48.6054 178.299 45.0388 175.685 38.419C173.943 34.0047 172.035 30.7365 171.006 28.9723L171.006 28.9721L171.006 28.9718L171.005 28.9713C170.491 28.0905 170.196 27.5848 170.25 27.4989ZM198.643 19.3602L200.452 16.2963C200.452 16.2963 202.075 18.2421 203.973 21.0938C205.871 23.9454 205.077 26.3913 205.077 26.3913C205.077 26.3913 205.088 24.354 202.869 23.3354C200.866 22.4159 200.835 24.0673 200.774 27.3191C200.767 27.6698 200.761 28.0391 200.751 28.4258C200.726 29.3965 200.672 30.4523 200.617 31.5204C200.446 34.824 200.27 38.2457 200.952 39.6309C201.43 40.6586 202.113 41.5739 202.959 42.3186C202.959 42.3186 200.65 42.3777 199.348 44.9229C198.388 46.7966 198.027 47.7855 197.902 48.2593C197.897 48.3696 197.876 48.4787 197.842 48.5835C197.85 48.4713 197.87 48.3604 197.903 48.2529L197.903 48.2557C198.027 47.2129 198.219 44.1204 196.438 43.1921C194.238 42.0552 191.018 49.105 191.018 49.105C191.018 49.105 190.324 42.3831 186.456 41.8751C183.462 41.4666 181.463 42.6599 180.854 43.2189C181.331 42.039 182.39 37.0561 182.39 29.724C182.39 21.2873 179.08 13.0361 179.08 13.0361C179.08 13.0361 183.6 19.3602 187.306 20.1665C187.306 20.1665 185.911 34.3254 186.705 36.7685C187.499 39.2116 191.119 42.0713 192.424 42.2756C193.729 42.4798 196.928 42.2809 197.24 34.3307C197.552 26.3805 195.434 22.6177 195.434 22.6177C195.434 22.6177 196.838 22.4162 198.643 19.3602ZM180.685 43.4904C180.725 43.4904 180.783 43.3964 180.855 43.2217C180.68 43.3803 180.617 43.4904 180.685 43.4904ZM230.475 15.2561C230.375 15.3744 230.277 15.4926 230.182 15.6163C230.291 15.5065 230.39 15.3858 230.475 15.2561ZM21.2603 0.00878906C21.2603 0.00878906 21.4589 1.12957 20.2569 3.98122C19.0549 6.83287 14.9378 6.93767 9.93119 5.60994C4.92456 4.28222 2.51788 0.00878906 2.51788 0.00878906C2.51788 0.00878906 3.52132 5.30356 8.0355 10.3968C11.4275 14.2238 11.2527 16.1525 10.9562 19.4245C10.8581 20.507 10.7467 21.7365 10.7467 23.2305C10.7467 24.2679 10.7788 25.3443 10.811 26.4201C10.9652 31.5769 11.119 36.7202 7.72573 37.4807C5.1784 38.025 2.54733 38.025 0 37.4807L11.6495 44.7133L12.3511 43.0819C13.0527 41.4531 14.7578 40.2302 19.174 40.5366C23.5902 40.843 23.5664 50 23.5664 50L29.1846 41.1306C29.1846 41.1306 27.3975 38.2897 26.6959 37.6097C27.6066 38.0263 30.7917 39.1955 30.7917 39.1955L36.41 32.8821C36.41 32.8821 37.1116 22.8999 34.1012 15.7722C31.0909 8.64437 21.2603 0.00878906 21.2603 0.00878906ZM18.0514 7.7413C21.1624 7.94557 25.7771 12.1195 27.9826 18.5378C28.5206 20.2033 28.8376 21.9342 28.9252 23.6847C28.1687 23.3304 27.353 23.0074 26.5115 22.6742C24.2634 21.7841 21.8318 20.8213 19.8571 18.9947C15.5997 15.0465 19.4388 11.4046 19.4388 11.4046C19.4388 11.4046 17.0797 12.1491 16.0154 14.0655C16.0187 12.8369 15.9506 11.6091 15.8115 10.3887C15.7715 10.1819 15.7314 9.9889 15.694 9.80917L15.694 9.80916C15.3265 8.04103 15.2251 7.55345 18.0514 7.7413ZM15.9333 36.8706C15.3588 35.7014 16.8017 35.0806 17.5643 34.8951C17.6755 35.0994 17.7946 35.3063 17.919 35.5214C18.4637 36.4398 18.9246 37.407 19.2958 38.4106C17.6066 38.1929 16.3013 37.599 15.9333 36.8706ZM24.7631 37.7871C23.523 38.2427 22.2163 38.4834 20.8976 38.4993C21.0841 37.9358 21.185 37.3467 21.1968 36.7523C21.2153 35.5815 20.4118 34.5936 19.5237 33.5018C18.7584 32.561 17.9304 31.543 17.5113 30.2642C16.6058 27.5012 19.1422 26.8643 19.1422 26.8643C19.1422 26.8643 16.8865 26.3859 16.1954 28.2081C16.136 26.1161 16.1123 23.3734 16.0888 20.6577V20.6576C16.083 19.989 16.0773 19.322 16.071 18.6668C17.2942 21.9297 20.2039 24.5797 25.6368 27.805C26.7885 28.4877 27.7893 29.1488 28.6604 29.7804C28.0859 33.726 26.7171 37.0587 24.7711 37.7871H24.7631ZM147.698 22.4511C150.97 20.3224 150.29 15.9764 150.29 15.9764L150.279 15.5464C150.279 15.5464 152.813 20.997 150.959 23.8944C150.409 24.7571 149.514 25.4774 148.505 26.1816C149.228 29.0306 149.252 32.0059 148.434 34.492C146.496 40.3969 137.467 48.2745 137.467 48.2745C137.467 48.2745 128.306 44.6407 123.824 36.9512C121.619 33.1589 122.426 26.4772 123.295 22.6768C123.808 20.3774 123.574 17.9709 122.627 15.8178C124.591 16.3374 126.626 16.5191 128.648 16.3554C129.439 16.2716 130.223 16.1288 130.994 15.928C129.519 13.5709 130.951 9.14697 130.951 9.14697L130.994 9.50712C130.994 9.50712 130.861 13.243 133.837 14.6944C134.291 14.912 134.766 15.0822 135.254 15.2024C137.102 15.1271 139.204 15.4577 141.69 16.7639C144.092 18.0244 145.971 20.1934 147.232 22.7199C147.388 22.6392 147.544 22.5505 147.698 22.4511ZM139.585 25.2792C139.605 25.3245 139.625 25.3699 139.646 25.4156C139.695 24.4913 139.561 23.5664 139.252 22.6957C138.524 20.4918 136.477 19.4274 134.552 18.4572C131.515 19.1318 127.081 22.2683 126.44 25.714C125.691 29.6729 125.556 34.2125 127.764 36.8706C129.972 39.5287 133.649 40.6038 133.649 40.6038C133.649 40.6038 131.979 39.3137 131.375 34.7661C131.147 32.9734 131.211 30.826 131.375 28.8801C130.932 28.7446 130.454 28.6901 129.993 28.6375C129.375 28.5669 128.788 28.4999 128.357 28.2458C127.269 27.6034 127.197 25.3699 127.197 25.3699L127.269 25.5124C127.269 25.5124 127.764 27.0658 129.199 27.2083C129.69 27.2578 130.141 27.1707 130.575 27.0869C130.918 27.0207 131.25 26.9566 131.582 26.9637C131.833 24.8808 132.13 23.3568 132.13 23.3568C132.13 23.3568 134.973 27.2271 135.76 30.283C136.546 33.339 136.077 34.7661 136.077 34.7661C136.077 34.7661 134.748 32.7047 133.872 31.9521C133.443 32.0784 133.064 32.1752 133.077 32.1214C132.829 33.3121 133.305 36.4379 134.666 37.8194C136.027 39.2008 137.806 40.421 138.431 36.4513C138.282 34.8896 138.264 33.318 138.375 31.7532C137.3 26.3859 133.128 20.9809 133.128 20.9809C133.128 20.9809 137.629 21.169 139.482 25.0554C139.518 25.1306 139.551 25.2048 139.585 25.2792ZM133.075 32.1187C133.094 32.0058 133.132 31.8968 133.186 31.7962C133.155 31.9057 133.118 32.0134 133.075 32.1187ZM144.054 23.9134L144.118 23.8944C143.726 23.025 143.222 22.2124 142.619 21.4781C142.806 22.3906 142.933 23.3145 143.001 24.2438C143.346 24.1246 143.698 24.0197 144.054 23.9134ZM142.495 32.5837C142.037 34.8172 142.426 36.3599 142.956 37.3813C143.985 36.148 144.737 34.7021 145.161 33.1441C145.584 31.586 145.668 29.9531 145.407 28.3586C144.036 29.4498 142.868 30.7507 142.495 32.5837Z" fill="white"/>
</svg>
