<svg width="73" height="58" viewBox="0 0 73 58" fill="none" xmlns="http://www.w3.org/2000/svg">
<path fill-rule="evenodd" clip-rule="evenodd" d="M65.4384 0.396796C66.336 0.0454548 67.3184 -0.075721 68.2834 0.0458807C69.2484 0.167482 70.1607 0.527419 70.9254 1.08822C71.69 1.64902 72.2791 2.39019 72.6313 3.23459C72.9834 4.07898 73.0858 4.99573 72.9278 5.88941L64.6902 52.3604C63.8912 56.843 58.6029 59.4137 54.1827 57.1808C50.4852 55.3128 44.9936 52.4347 40.054 49.4317C37.5842 47.9285 30.0186 43.1149 30.9484 39.6896C31.7474 36.7609 44.4597 25.7554 51.7238 19.2122C54.5749 16.6415 53.2747 15.1586 49.9078 17.5232C41.5431 23.3941 28.1226 32.3222 23.6843 34.8354C19.7689 37.0514 17.7277 37.4297 15.2869 37.0514C10.834 36.3623 6.70438 35.2948 3.33383 33.9943C-1.22078 32.2377 -0.999224 26.4141 3.33019 24.7183L65.4384 0.396796Z" fill="white"/>
<path fill-rule="evenodd" clip-rule="evenodd" d="M65.4384 0.396796C66.336 0.0454548 67.3184 -0.075721 68.2834 0.0458807C69.2484 0.167482 70.1607 0.527419 70.9254 1.08822C71.69 1.64902 72.2791 2.39019 72.6313 3.23459C72.9834 4.07898 73.0858 4.99573 72.9278 5.88941L64.6902 52.3604C63.8912 56.843 58.6029 59.4137 54.1827 57.1808C50.4852 55.3128 44.9936 52.4347 40.054 49.4317C37.5842 47.9285 30.0186 43.1149 30.9484 39.6896C31.7474 36.7609 44.4597 25.7554 51.7238 19.2122C54.5749 16.6415 53.2747 15.1586 49.9078 17.5232C41.5431 23.3941 28.1226 32.3222 23.6843 34.8354C19.7689 37.0514 17.7277 37.4297 15.2869 37.0514C10.834 36.3623 6.70438 35.2948 3.33383 33.9943C-1.22078 32.2377 -0.999224 26.4141 3.33019 24.7183L65.4384 0.396796Z" fill="url(#paint0_linear_1_1248)"/>
<defs>
<linearGradient id="paint0_linear_1_1248" x1="36.6816" y1="6.45648e-06" x2="42.1092" y2="61.1432" gradientUnits="userSpaceOnUse">
<stop stop-color="#FB801D"/>
<stop offset="1" stop-color="#FB451D"/>
</linearGradient>
</defs>
</svg>
