<svg width="30" height="30" viewBox="0 0 30 30" fill="none" xmlns="http://www.w3.org/2000/svg">
<path d="M29.4864 0.513072C29.3378 0.363996 29.1221 0.302234 28.9171 0.349672L24.425 1.3845C24.3132 1.41045 24.2111 1.46689 24.1296 1.5479L8.82602 16.852L7.09743 15.1233C6.98285 15.0088 6.82758 14.9444 6.6655 14.9444C6.50342 14.9444 6.34815 15.0088 6.23357 15.1233L4.93691 16.4196C4.69834 16.6586 4.69834 17.0453 4.93691 17.2835L7.52982 19.8768L2.62284 24.7832C2.02756 24.8208 1.47342 25.0688 1.04774 25.494C0.586298 25.9559 0.332031 26.57 0.332031 27.2227C0.332031 27.8753 0.586298 28.4892 1.04774 28.9513C1.50963 29.4132 2.1233 29.6674 2.77633 29.6674C3.42935 29.6674 4.04302 29.4132 4.50492 28.9513C4.94218 28.5144 5.17811 27.9514 5.21432 27.3775L7.96164 24.6302L7.9621 24.6292L10.1222 22.4701L12.7151 25.0625C12.8297 25.1771 12.9849 25.2416 13.1474 25.2416C13.3094 25.2416 13.4648 25.1771 13.5793 25.0625L14.8756 23.7663C15.1146 23.5274 15.1146 23.1397 14.8756 22.9016L13.1474 21.173L28.4516 5.86935C28.532 5.78834 28.5893 5.68584 28.6144 5.5744L29.6493 1.08234C29.6977 0.876941 29.6351 0.661691 29.4864 0.513072Z" fill="white" fill-opacity="0.6"/>
<path d="M22.7352 20.5288C22.804 22.9351 24.5113 24.081 26.2014 24.081C27.8916 24.081 29.1348 22.7289 29.0661 20.5288C28.9973 18.3288 27.1277 14.7995 26.2014 13.3099C25.0174 14.7136 22.6664 18.1225 22.7352 20.5288Z" fill="white" fill-opacity="0.6"/>
</svg>
