<svg width="64" height="64" viewBox="0 0 64 64" fill="none" xmlns="http://www.w3.org/2000/svg">
<rect x="0.5" y="0.5" width="63" height="63" rx="15.5" stroke="white" stroke-opacity="0.1"/>
<path d="M45.9158 17.3503C46.1209 17.3029 46.3366 17.3646 46.4852 17.5137C46.6338 17.6623 46.6965 17.8776 46.648 18.083L45.6132 22.5751C45.5881 22.6865 45.5308 22.789 45.4503 22.87L36.3201 31.9999L38.1728 33.8526L39.9013 32.124C40.0159 32.0095 40.1712 31.945 40.3333 31.945C40.4954 31.945 40.6506 32.0095 40.7652 32.124L42.0619 33.4202C42.3004 33.6593 42.3004 34.046 42.0619 34.2841L39.469 36.8774L44.3759 41.7839C44.9712 41.8215 45.5254 42.0694 45.951 42.4947C46.4125 42.9566 46.6667 43.5707 46.6667 44.2233C46.6667 44.8759 46.4125 45.4899 45.951 45.9519C45.4891 46.4138 44.8755 46.6681 44.2225 46.6681C43.5694 46.6681 42.9558 46.4138 42.4939 45.9519C42.0566 45.5151 41.8207 44.952 41.7845 44.3782L36.8766 39.4708L35.617 40.7299C35.5024 40.8444 35.3472 40.9089 35.1847 40.9089C35.0227 40.9089 34.8674 40.8444 34.7528 40.7299L33.4565 39.4336C33.2175 39.1947 33.2175 38.8071 33.4565 38.5689L33.8514 38.1736L31.9988 36.3211L30.1462 38.1736L30.541 38.5689C30.7801 38.8071 30.7801 39.1947 30.541 39.4336L29.2448 40.7299C29.1302 40.8444 28.9749 40.9089 28.8129 40.9089C28.6504 40.9089 28.4951 40.8444 28.3805 40.7299L27.1209 39.4708L22.2131 44.3782C22.1769 44.952 21.941 45.5151 21.5037 45.9519C21.0418 46.4138 20.4281 46.6681 19.7751 46.6681C19.1221 46.6681 18.5084 46.4138 18.0465 45.9519C17.5851 45.4899 17.3308 44.8759 17.3308 44.2233C17.3308 43.5707 17.5851 42.9566 18.0465 42.4947C18.4722 42.0694 19.0263 41.8215 19.6216 41.7839L24.5286 36.8774L21.9357 34.2841C21.6971 34.046 21.6971 33.6593 21.9357 33.4202L23.2323 32.124C23.3469 32.0095 23.5022 31.945 23.6643 31.945C23.8264 31.945 23.9816 32.0095 24.0962 32.124L25.8248 33.8526L27.6775 31.9999L18.5472 22.87C18.4667 22.789 18.4094 22.6865 18.3843 22.5751L17.3495 18.083C17.3011 17.8776 17.3637 17.6623 17.5123 17.5137C17.661 17.3646 17.8767 17.3029 18.0817 17.3503L22.5737 18.3852C22.6856 18.4111 22.7877 18.4675 22.8691 18.5486L31.9988 27.6785L41.1284 18.5486C41.2099 18.4675 41.3119 18.4111 41.4238 18.3852L45.9158 17.3503Z" fill="white" fill-opacity="0.6"/>
</svg>
